<svg width="260" height="50" viewBox="0 0 260 50" fill="none" xmlns="http://www.w3.org/2000/svg">
<path d="M3.906 40C3.822 40 3.752 40 3.696 40C3.64 39.972 3.584 39.944 3.528 39.916C3.5 39.86 3.472 39.804 3.444 39.748C3.444 39.692 3.444 39.622 3.444 39.538C3.444 37.27 3.444 34.974 3.444 32.65C3.444 30.298 3.444 28.016 3.444 25.804C3.444 23.564 3.444 21.478 3.444 19.546C3.444 17.614 3.444 15.92 3.444 14.464C3.444 13.82 3.444 13.176 3.444 12.532C3.444 11.888 3.444 11.244 3.444 10.6C4.032 10.6 4.62 10.6 5.208 10.6C5.796 10.6 6.384 10.6 6.972 10.6C7.084 10.6 7.168 10.628 7.224 10.684C7.28 10.712 7.322 10.768 7.35 10.852C7.406 10.908 7.434 10.978 7.434 11.062C7.434 13.162 7.434 15.276 7.434 17.404C7.434 19.532 7.434 21.66 7.434 23.788C7.434 25.916 7.434 28.044 7.434 30.172C7.434 32.272 7.434 34.372 7.434 36.472H17.892C18.34 36.472 18.732 36.556 19.068 36.724C19.404 36.892 19.684 37.13 19.908 37.438C20.132 37.746 20.314 38.11 20.454 38.53C20.594 38.95 20.692 39.44 20.748 40H3.906ZM17.094 32.356C17.458 32.356 17.808 32.356 18.144 32.356C18.508 32.356 18.858 32.356 19.194 32.356C19.558 32.356 19.922 32.356 20.286 32.356C20.37 32.356 20.44 32.384 20.496 32.44C20.58 32.468 20.636 32.524 20.664 32.608C20.72 32.664 20.748 32.734 20.748 32.818C20.748 33.35 20.748 33.924 20.748 34.54C20.748 35.128 20.748 35.758 20.748 36.43C20.748 37.074 20.748 37.704 20.748 38.32C20.748 38.936 20.748 39.496 20.748 40C19.796 39.944 19.054 39.804 18.522 39.58C17.99 39.328 17.612 39.006 17.388 38.614C17.192 38.194 17.094 37.704 17.094 37.144C17.094 36.64 17.094 36.122 17.094 35.59C17.094 35.03 17.094 34.47 17.094 33.91C17.094 33.35 17.094 32.832 17.094 32.356ZM42.0758 25.258C42.0758 26.042 42.0758 26.826 42.0758 27.61C42.0758 28.394 42.0758 29.192 42.0758 30.004C42.0758 30.788 42.0758 31.572 42.0758 32.356C42.0758 33.14 42.0758 33.924 42.0758 34.708C42.0758 35.072 42.1038 35.38 42.1598 35.632C42.2438 35.884 42.3558 36.08 42.4958 36.22C42.6358 36.36 42.8038 36.458 42.9998 36.514C43.1958 36.57 43.4338 36.598 43.7138 36.598C43.7698 36.598 43.8258 36.598 43.8818 36.598C43.9658 36.598 44.0498 36.598 44.1338 36.598H44.7638C44.7638 37.102 44.7638 37.592 44.7638 38.068C44.7638 38.544 44.7638 39.034 44.7638 39.538C44.7638 39.706 44.7218 39.832 44.6378 39.916C44.5538 39.972 44.4418 40 44.3018 40C44.1618 40 43.9378 40 43.6298 40C43.3498 40 43.0838 40 42.8318 40C42.1878 40 41.5858 39.902 41.0258 39.706C40.4658 39.51 39.9758 39.216 39.5558 38.824C39.1358 38.432 38.8138 37.956 38.5898 37.396C38.3658 36.808 38.2538 36.122 38.2538 35.338C38.2538 34.358 38.2538 33.35 38.2538 32.314C38.2538 31.25 38.2538 30.228 38.2538 29.248C38.2538 28.8 38.2538 28.352 38.2538 27.904C38.2538 27.456 38.2538 27.008 38.2538 26.56C38.2538 26.112 38.2538 25.664 38.2538 25.216C38.2538 24.096 38.0858 23.228 37.7498 22.612C37.4418 21.968 36.9098 21.52 36.1538 21.268C35.3978 20.988 34.3758 20.848 33.0878 20.848C32.2758 20.848 31.4918 20.89 30.7358 20.974C29.9798 21.058 29.2378 21.198 28.5098 21.394C27.8098 21.562 27.0958 21.786 26.3678 22.066H25.7378C25.7378 21.562 25.7378 21.058 25.7378 20.554C25.7378 20.05 25.7378 19.546 25.7378 19.042C25.7378 18.958 25.7518 18.888 25.7798 18.832C25.8078 18.776 25.8358 18.734 25.8638 18.706C26.0038 18.538 26.4238 18.342 27.1238 18.118C27.8518 17.894 28.7338 17.698 29.7698 17.53C30.8338 17.334 31.9398 17.236 33.0878 17.236C34.6558 17.236 35.9998 17.39 37.1198 17.698C38.2678 17.978 39.2058 18.44 39.9338 19.084C40.6618 19.728 41.1938 20.554 41.5298 21.562C41.8938 22.57 42.0758 23.802 42.0758 25.258ZM28.0058 34.036C28.0058 34.988 28.2718 35.716 28.8038 36.22C29.3638 36.696 30.1898 36.934 31.2818 36.934C32.2338 36.934 33.1298 36.808 33.9698 36.556C34.8378 36.304 35.6778 35.884 36.4898 35.296C37.3018 34.68 38.1418 33.84 39.0098 32.776V36.43H37.7918C37.3158 37.298 36.7278 38.026 36.0278 38.614C35.3558 39.202 34.5578 39.65 33.6338 39.958C32.7098 40.266 31.6878 40.42 30.5678 40.42C29.2518 40.42 28.1178 40.182 27.1658 39.706C26.2138 39.202 25.4718 38.516 24.9398 37.648C24.4078 36.752 24.1418 35.688 24.1418 34.456V33.112C24.1418 32.188 24.2958 31.362 24.6038 30.634C24.9118 29.878 25.3458 29.248 25.9058 28.744C26.4938 28.24 27.1938 27.848 28.0058 27.568C28.8178 27.288 29.7278 27.148 30.7358 27.148C31.7158 27.148 32.6538 27.148 33.5498 27.148C34.4738 27.148 35.3838 27.148 36.2798 27.148C37.1758 27.148 38.0858 27.148 39.0098 27.148C39.2618 27.148 39.4298 27.302 39.5138 27.61C39.6258 27.89 39.6958 28.24 39.7238 28.66C39.7518 29.08 39.7658 29.486 39.7658 29.878C38.7298 29.878 37.7638 29.878 36.8678 29.878C35.9998 29.878 35.1178 29.878 34.2218 29.878C33.3258 29.878 32.3458 29.878 31.2818 29.878C30.6938 29.878 30.1898 29.948 29.7698 30.088C29.3778 30.2 29.0418 30.41 28.7618 30.718C28.5098 30.942 28.3138 31.236 28.1738 31.6C28.0618 31.936 28.0058 32.328 28.0058 32.776V34.036ZM58.4394 40C57.6554 40 56.7454 40 55.7094 40C54.6734 40 53.6514 40 52.6434 40C51.6634 40 50.8094 40 50.0814 40C49.3534 40 48.9054 40 48.7374 40C48.5974 40 48.4854 39.958 48.4014 39.874C48.3174 39.79 48.2754 39.678 48.2754 39.538C48.2754 37.214 48.2754 34.946 48.2754 32.734C48.2754 30.522 48.2754 28.338 48.2754 26.182C48.2754 24.026 48.2754 21.842 48.2754 19.63C48.2754 17.418 48.2754 15.136 48.2754 12.784H52.4754L52.1814 13.498C52.1814 14.646 52.1814 15.724 52.1814 16.732C52.1814 17.74 52.1814 18.804 52.1814 19.924C52.1814 21.296 52.1814 22.668 52.1814 24.04C52.1814 25.412 52.1814 26.784 52.1814 28.156C52.1814 29.5 52.1814 30.872 52.1814 32.272C52.1814 33.672 52.1814 35.1 52.1814 36.556C52.8534 36.556 53.4834 36.556 54.0714 36.556C54.6594 36.556 55.2334 36.556 55.7934 36.556C56.3814 36.556 56.9974 36.556 57.6414 36.556C58.8734 36.556 59.8674 36.374 60.6234 36.01C61.3794 35.646 61.9394 35.128 62.3034 34.456C62.6674 33.784 62.8494 32.986 62.8494 32.062V30.886C62.8494 30.074 62.6674 29.36 62.3034 28.744C61.9394 28.128 61.3094 27.652 60.4134 27.316C59.5454 26.952 58.3134 26.77 56.7174 26.77H50.3334L50.4594 24.25H61.6734V25.258C63.3534 25.594 64.6274 26.294 65.4954 27.358C66.3634 28.394 66.7974 29.738 66.7974 31.39V32.524C66.7974 34.232 66.4474 35.646 65.7474 36.766C65.0754 37.858 64.1094 38.67 62.8494 39.202C61.5894 39.734 60.1194 40 58.4394 40ZM45.7554 10.6C47.7154 10.6 49.6754 10.6 51.6354 10.6C53.6234 10.6 55.5974 10.6 57.5574 10.6C59.1534 10.6 60.5114 10.768 61.6314 11.104C62.7794 11.44 63.7034 11.93 64.4034 12.574C65.1034 13.19 65.6074 13.918 65.9154 14.758C66.2514 15.57 66.4194 16.452 66.4194 17.404V18.412C66.4194 19.56 66.2234 20.554 65.8314 21.394C65.4394 22.234 64.8514 22.948 64.0674 23.536C63.3114 24.096 62.3594 24.516 61.2114 24.796C60.0914 25.076 58.7754 25.216 57.2634 25.216C56.0034 25.216 54.8694 25.216 53.8614 25.216C52.8534 25.216 51.8874 25.216 50.9634 25.216L50.4594 25.594L50.3334 23.41C51.4254 23.41 52.5034 23.41 53.5674 23.41C54.6314 23.41 55.6954 23.41 56.7594 23.41C58.2994 23.41 59.4754 23.228 60.2874 22.864C61.1274 22.5 61.7014 21.982 62.0094 21.31C62.3454 20.61 62.5134 19.826 62.5134 18.958V17.908C62.5134 17.32 62.4294 16.802 62.2614 16.354C62.1214 15.906 61.8834 15.528 61.5474 15.22C61.1834 14.856 60.6654 14.576 59.9934 14.38C59.3494 14.156 58.5514 14.044 57.5994 14.044C56.3394 14.044 55.0794 14.044 53.8194 14.044C52.5594 14.044 51.2854 14.044 49.9974 14.044C48.7374 14.044 47.4774 14.044 46.2174 14.044C46.0774 14.044 45.9654 14.002 45.8814 13.918C45.7974 13.834 45.7554 13.722 45.7554 13.582C45.7554 13.05 45.7554 12.56 45.7554 12.112C45.7554 11.636 45.7554 11.132 45.7554 10.6ZM80.1048 17.194C81.7568 17.194 83.2688 17.544 84.6408 18.244C86.0128 18.916 87.1048 19.952 87.9168 21.352C88.7568 22.724 89.1768 24.488 89.1768 26.644V29.71C89.1768 29.794 89.1488 29.878 89.0928 29.962C89.0648 30.018 89.0228 30.074 88.9668 30.13C88.9108 30.158 88.8268 30.172 88.7148 30.172H77.8368C77.3608 30.172 76.8848 30.172 76.4088 30.172C75.9328 30.172 75.4708 30.172 75.0228 30.172H73.7628L73.2168 27.442H85.3968C85.3968 27.302 85.3968 27.162 85.3968 27.022C85.3968 26.882 85.3968 26.742 85.3968 26.602C85.3968 25.51 85.2708 24.572 85.0188 23.788C84.7948 22.976 84.4308 22.318 83.9268 21.814C83.4788 21.394 82.9328 21.086 82.2888 20.89C81.6448 20.666 80.9168 20.554 80.1048 20.554C78.2848 20.554 76.8848 21.044 75.9048 22.024C74.9248 22.976 74.4348 24.544 74.4348 26.728V31.138C74.4348 32.034 74.5608 32.846 74.8128 33.574C75.0648 34.302 75.4148 34.904 75.8628 35.38C76.4228 35.94 77.1508 36.36 78.0468 36.64C78.9708 36.892 80.0348 37.018 81.2388 37.018C82.3028 37.018 83.2128 36.962 83.9688 36.85C84.7528 36.738 85.4808 36.57 86.1528 36.346C86.8248 36.122 87.5108 35.842 88.2108 35.506H88.8408C88.8408 35.954 88.8408 36.416 88.8408 36.892C88.8408 37.368 88.8408 37.844 88.8408 38.32C88.8408 38.376 88.8268 38.432 88.7988 38.488C88.7708 38.544 88.7288 38.6 88.6728 38.656C88.3928 38.936 87.8748 39.216 87.1188 39.496C86.3908 39.776 85.4948 40 84.4308 40.168C83.3948 40.364 82.2748 40.462 81.0708 40.462C79.4748 40.462 78.0188 40.266 76.7028 39.874C75.4148 39.482 74.3088 38.894 73.3848 38.11C72.4888 37.326 71.8028 36.36 71.3268 35.212C70.8508 34.036 70.6128 32.678 70.6128 31.138V26.77C70.6128 25.146 70.8508 23.732 71.3268 22.528C71.8308 21.324 72.5168 20.33 73.3848 19.546C74.2528 18.762 75.2608 18.174 76.4088 17.782C77.5568 17.39 78.7888 17.194 80.1048 17.194ZM103.482 17.194C104.546 17.194 105.47 17.278 106.254 17.446C107.066 17.614 107.724 17.824 108.228 18.076C108.732 18.3 109.068 18.496 109.236 18.664C109.32 18.748 109.362 18.818 109.362 18.874C109.39 18.93 109.404 19.014 109.404 19.126C109.404 19.63 109.404 20.148 109.404 20.68C109.404 21.184 109.404 21.688 109.404 22.192H108.774C108.13 21.828 107.374 21.52 106.506 21.268C105.666 20.988 104.644 20.848 103.44 20.848C102.152 20.848 101.06 21.086 100.164 21.562C99.2684 22.01 98.5824 22.724 98.1064 23.704C97.6304 24.656 97.3924 25.846 97.3924 27.274V30.718C97.3924 31.726 97.5184 32.622 97.7704 33.406C98.0504 34.162 98.4564 34.806 98.9884 35.338C99.4924 35.814 100.122 36.178 100.878 36.43C101.634 36.682 102.488 36.808 103.44 36.808C104.252 36.808 104.966 36.766 105.582 36.682C106.226 36.57 106.8 36.43 107.304 36.262C107.836 36.066 108.326 35.842 108.774 35.59H109.404C109.404 36.122 109.404 36.654 109.404 37.186C109.404 37.69 109.404 38.194 109.404 38.698C109.404 38.754 109.39 38.81 109.362 38.866C109.362 38.922 109.334 38.978 109.278 39.034C109.082 39.23 108.732 39.44 108.228 39.664C107.752 39.888 107.122 40.07 106.338 40.21C105.554 40.378 104.588 40.462 103.44 40.462C101.872 40.462 100.472 40.252 99.2404 39.832C98.0084 39.412 96.9584 38.796 96.0904 37.984C95.2224 37.172 94.5644 36.178 94.1164 35.002C93.6964 33.798 93.4864 32.426 93.4864 30.886V27.148C93.4864 25.02 93.9204 23.214 94.7884 21.73C95.6564 20.246 96.8324 19.126 98.3164 18.37C99.8284 17.586 101.55 17.194 103.482 17.194ZM130.656 25.258C130.656 26.042 130.656 26.826 130.656 27.61C130.656 28.394 130.656 29.192 130.656 30.004C130.656 30.788 130.656 31.572 130.656 32.356C130.656 33.14 130.656 33.924 130.656 34.708C130.656 35.072 130.684 35.38 130.74 35.632C130.824 35.884 130.936 36.08 131.076 36.22C131.216 36.36 131.384 36.458 131.58 36.514C131.776 36.57 132.014 36.598 132.294 36.598C132.35 36.598 132.406 36.598 132.462 36.598C132.546 36.598 132.63 36.598 132.714 36.598H133.344C133.344 37.102 133.344 37.592 133.344 38.068C133.344 38.544 133.344 39.034 133.344 39.538C133.344 39.706 133.302 39.832 133.218 39.916C133.134 39.972 133.022 40 132.882 40C132.742 40 132.518 40 132.21 40C131.93 40 131.664 40 131.412 40C130.768 40 130.166 39.902 129.606 39.706C129.046 39.51 128.556 39.216 128.136 38.824C127.716 38.432 127.394 37.956 127.17 37.396C126.946 36.808 126.834 36.122 126.834 35.338C126.834 34.358 126.834 33.35 126.834 32.314C126.834 31.25 126.834 30.228 126.834 29.248C126.834 28.8 126.834 28.352 126.834 27.904C126.834 27.456 126.834 27.008 126.834 26.56C126.834 26.112 126.834 25.664 126.834 25.216C126.834 24.096 126.666 23.228 126.33 22.612C126.022 21.968 125.49 21.52 124.734 21.268C123.978 20.988 122.956 20.848 121.668 20.848C120.856 20.848 120.072 20.89 119.316 20.974C118.56 21.058 117.818 21.198 117.09 21.394C116.39 21.562 115.676 21.786 114.948 22.066H114.318C114.318 21.562 114.318 21.058 114.318 20.554C114.318 20.05 114.318 19.546 114.318 19.042C114.318 18.958 114.332 18.888 114.36 18.832C114.388 18.776 114.416 18.734 114.444 18.706C114.584 18.538 115.004 18.342 115.704 18.118C116.432 17.894 117.314 17.698 118.35 17.53C119.414 17.334 120.52 17.236 121.668 17.236C123.236 17.236 124.58 17.39 125.7 17.698C126.848 17.978 127.786 18.44 128.514 19.084C129.242 19.728 129.774 20.554 130.11 21.562C130.474 22.57 130.656 23.802 130.656 25.258ZM116.586 34.036C116.586 34.988 116.852 35.716 117.384 36.22C117.944 36.696 118.77 36.934 119.862 36.934C120.814 36.934 121.71 36.808 122.55 36.556C123.418 36.304 124.258 35.884 125.07 35.296C125.882 34.68 126.722 33.84 127.59 32.776V36.43H126.372C125.896 37.298 125.308 38.026 124.608 38.614C123.936 39.202 123.138 39.65 122.214 39.958C121.29 40.266 120.268 40.42 119.148 40.42C117.832 40.42 116.698 40.182 115.746 39.706C114.794 39.202 114.052 38.516 113.52 37.648C112.988 36.752 112.722 35.688 112.722 34.456V33.112C112.722 32.188 112.876 31.362 113.184 30.634C113.492 29.878 113.926 29.248 114.486 28.744C115.074 28.24 115.774 27.848 116.586 27.568C117.398 27.288 118.308 27.148 119.316 27.148C120.296 27.148 121.234 27.148 122.13 27.148C123.054 27.148 123.964 27.148 124.86 27.148C125.756 27.148 126.666 27.148 127.59 27.148C127.842 27.148 128.01 27.302 128.094 27.61C128.206 27.89 128.276 28.24 128.304 28.66C128.332 29.08 128.346 29.486 128.346 29.878C127.31 29.878 126.344 29.878 125.448 29.878C124.58 29.878 123.698 29.878 122.802 29.878C121.906 29.878 120.926 29.878 119.862 29.878C119.274 29.878 118.77 29.948 118.35 30.088C117.958 30.2 117.622 30.41 117.342 30.718C117.09 30.942 116.894 31.236 116.754 31.6C116.642 31.936 116.586 32.328 116.586 32.776V34.036ZM152.072 21.332C153.25 21.332 154.273 21.4707 155.14 21.748C156.006 22.008 156.648 22.3547 157.064 22.788C157.15 22.8573 157.202 22.9267 157.22 22.996C157.254 23.0653 157.272 23.1433 157.272 23.23C157.272 23.5767 157.272 23.9407 157.272 24.322C157.272 24.7033 157.272 25.0933 157.272 25.492C157.272 25.8733 157.272 26.246 157.272 26.61C156.942 26.61 156.604 26.61 156.258 26.61C155.928 26.61 155.59 26.61 155.244 26.61C155.157 26.61 155.088 26.584 155.036 26.532C154.984 26.48 154.958 26.4107 154.958 26.324C154.958 26.0987 154.958 25.8733 154.958 25.648C154.958 25.4053 154.958 25.1627 154.958 24.92C154.958 24.6773 154.958 24.426 154.958 24.166C154.958 23.906 154.958 23.6373 154.958 23.36L155.686 24.504C155.27 24.1747 154.767 23.932 154.178 23.776C153.588 23.6027 152.886 23.516 152.072 23.516C151.465 23.516 150.928 23.5767 150.46 23.698C149.992 23.8193 149.584 24.0013 149.238 24.244C148.908 24.4693 148.657 24.7553 148.484 25.102C148.31 25.4487 148.224 25.8387 148.224 26.272V26.792C148.224 27.2427 148.293 27.6327 148.432 27.962C148.588 28.2913 148.856 28.5773 149.238 28.82C149.619 29.0627 150.165 29.288 150.876 29.496L153.372 30.224C154.169 30.4667 154.845 30.7267 155.4 31.004C155.954 31.264 156.396 31.5673 156.726 31.914C157.055 32.2433 157.289 32.6333 157.428 33.084C157.584 33.5173 157.662 34.0373 157.662 34.644V35.632C157.662 36.6027 157.41 37.452 156.908 38.18C156.422 38.908 155.703 39.4713 154.75 39.87C153.814 40.2687 152.678 40.468 151.344 40.468C150.494 40.468 149.697 40.3987 148.952 40.26C148.224 40.1387 147.582 39.9653 147.028 39.74C146.49 39.5147 146.066 39.2547 145.754 38.96C145.684 38.8907 145.641 38.83 145.624 38.778C145.606 38.7087 145.598 38.622 145.598 38.518C145.598 38.31 145.598 38.102 145.598 37.894C145.598 37.686 145.598 37.478 145.598 37.27C145.598 37.0447 145.598 36.8193 145.598 36.594H145.988C146.768 37.2007 147.574 37.634 148.406 37.894C149.255 38.154 150.269 38.284 151.448 38.284C152.696 38.284 153.649 38.0413 154.308 37.556C154.966 37.0707 155.296 36.412 155.296 35.58V34.878C155.296 34.4447 155.218 34.0893 155.062 33.812C154.923 33.5173 154.654 33.2573 154.256 33.032C153.874 32.8067 153.32 32.59 152.592 32.382L150.07 31.628C149.255 31.3853 148.579 31.1167 148.042 30.822C147.504 30.51 147.071 30.172 146.742 29.808C146.43 29.4267 146.204 29.0193 146.066 28.586C145.927 28.1353 145.858 27.6327 145.858 27.078V26.09C145.858 25.3793 146.005 24.738 146.3 24.166C146.612 23.594 147.036 23.1 147.574 22.684C148.128 22.2507 148.787 21.9213 149.55 21.696C150.312 21.4533 151.153 21.332 152.072 21.332ZM159.394 26.168H169.196C169.282 26.168 169.352 26.194 169.404 26.246C169.456 26.298 169.482 26.3673 169.482 26.454C169.482 26.6793 169.482 26.896 169.482 27.104C169.482 27.312 169.482 27.52 169.482 27.728C169.482 27.936 169.482 28.1613 169.482 28.404H159.68C159.645 28.404 159.61 28.3953 159.576 28.378C159.541 28.3607 159.506 28.3433 159.472 28.326C159.454 28.2913 159.437 28.2567 159.42 28.222C159.402 28.1873 159.394 28.1527 159.394 28.118C159.394 27.8753 159.394 27.65 159.394 27.442C159.394 27.234 159.394 27.026 159.394 26.818C159.394 26.61 159.394 26.3933 159.394 26.168ZM169.482 37.738C169.482 38.0673 169.482 38.3967 169.482 38.726C169.482 39.0553 169.482 39.3847 169.482 39.714C169.482 39.8007 169.456 39.87 169.404 39.922C169.369 39.974 169.3 40 169.196 40C169.04 40 168.875 40 168.702 40C168.546 40 168.381 40 168.208 40C168.052 40 167.887 40 167.714 40C167.558 40 167.402 40 167.246 40C166.396 40 165.651 39.9047 165.01 39.714C164.368 39.506 163.822 39.194 163.372 38.778C162.921 38.3447 162.583 37.7987 162.358 37.14C162.132 36.4813 162.02 35.684 162.02 34.748C162.02 33.8987 162.02 33.0493 162.02 32.2C162.02 31.3507 162.02 30.5013 162.02 29.652C162.02 28.8027 162.02 27.9533 162.02 27.104C162.02 26.2373 162.02 25.3793 162.02 24.53C162.02 24.062 162.02 23.6027 162.02 23.152C162.02 22.7013 162.02 22.2507 162.02 21.8C162.384 21.8 162.739 21.8 163.086 21.8C163.432 21.8 163.779 21.8 164.126 21.8C164.178 21.8 164.221 21.8173 164.256 21.852C164.308 21.8693 164.342 21.904 164.36 21.956C164.394 21.9907 164.412 22.034 164.412 22.086C164.412 23.126 164.412 24.166 164.412 25.206C164.412 26.2287 164.412 27.26 164.412 28.3C164.412 29.34 164.412 30.38 164.412 31.42C164.412 32.46 164.412 33.5 164.412 34.54C164.412 35.164 164.472 35.684 164.594 36.1C164.715 36.516 164.906 36.854 165.166 37.114C165.408 37.3393 165.703 37.504 166.05 37.608C166.414 37.6947 166.847 37.738 167.35 37.738C167.558 37.738 167.757 37.738 167.948 37.738C168.156 37.738 168.355 37.738 168.546 37.738C168.736 37.738 168.936 37.738 169.144 37.738H169.482ZM177.828 25.882C178.712 25.882 179.518 26.0293 180.246 26.324C180.974 26.6013 181.598 26.9913 182.118 27.494C182.655 27.9967 183.062 28.5947 183.34 29.288C183.617 29.9813 183.756 30.744 183.756 31.576V34.462C183.756 35.606 183.496 36.62 182.976 37.504C182.473 38.3707 181.771 39.0553 180.87 39.558C179.968 40.0433 178.954 40.286 177.828 40.286C176.944 40.286 176.138 40.1473 175.41 39.87C174.682 39.5927 174.049 39.2027 173.512 38.7C172.992 38.18 172.593 37.5733 172.316 36.88C172.038 36.1867 171.9 35.424 171.9 34.592V31.706C171.9 30.5447 172.151 29.5307 172.654 28.664C173.174 27.7973 173.884 27.1213 174.786 26.636C175.687 26.1333 176.701 25.882 177.828 25.882ZM177.958 28.066C177.16 28.066 176.484 28.2307 175.93 28.56C175.392 28.8893 174.976 29.3313 174.682 29.886C174.404 30.4407 174.266 31.0733 174.266 31.784V34.41C174.266 34.982 174.352 35.502 174.526 35.97C174.716 36.4207 174.968 36.8107 175.28 37.14C175.574 37.4347 175.921 37.6687 176.32 37.842C176.736 38.0153 177.195 38.102 177.698 38.102C178.495 38.102 179.162 37.9373 179.7 37.608C180.254 37.2613 180.67 36.8107 180.948 36.256C181.242 35.7013 181.39 35.0773 181.39 34.384V31.758C181.39 31.1513 181.303 30.614 181.13 30.146C180.974 29.678 180.731 29.288 180.402 28.976C180.124 28.6813 179.778 28.456 179.362 28.3C178.946 28.144 178.478 28.066 177.958 28.066ZM188.945 28.612H189.803C190.15 27.9707 190.505 27.4507 190.869 27.052C191.233 26.6533 191.632 26.3673 192.065 26.194C192.499 26.0033 192.975 25.908 193.495 25.908C193.807 25.908 194.067 25.934 194.275 25.986C194.483 26.0207 194.648 26.0727 194.769 26.142C194.856 26.1767 194.908 26.2287 194.925 26.298C194.96 26.35 194.977 26.428 194.977 26.532C194.977 26.688 194.977 26.8527 194.977 27.026C194.977 27.1993 194.977 27.3727 194.977 27.546C194.977 27.702 194.977 27.8667 194.977 28.04C194.977 28.2133 194.977 28.3867 194.977 28.56H194.587C194.397 28.508 194.197 28.4647 193.989 28.43C193.781 28.3953 193.53 28.378 193.235 28.378C192.681 28.378 192.169 28.482 191.701 28.69C191.233 28.8807 190.774 29.2013 190.323 29.652C189.89 30.0853 189.431 30.666 188.945 31.394V28.612ZM189.361 40C189.119 40 188.876 40 188.633 40C188.391 40 188.148 40 187.905 40C187.663 40 187.411 40 187.151 40C187.099 40 187.056 40 187.021 40C186.987 39.9827 186.952 39.9653 186.917 39.948C186.9 39.9133 186.883 39.8787 186.865 39.844C186.865 39.8093 186.865 39.766 186.865 39.714C186.865 39.35 186.865 38.856 186.865 38.232C186.865 37.608 186.865 36.906 186.865 36.126C186.865 35.3287 186.865 34.5053 186.865 33.656C186.865 32.7893 186.865 31.94 186.865 31.108C186.865 30.2587 186.865 29.47 186.865 28.742C186.865 28.1873 186.865 27.6933 186.865 27.26C186.865 26.8093 186.865 26.4453 186.865 26.168C187.143 26.168 187.403 26.168 187.645 26.168C187.905 26.168 188.148 26.168 188.373 26.168C188.616 26.168 188.85 26.168 189.075 26.168C189.145 26.168 189.197 26.1853 189.231 26.22C189.266 26.2373 189.292 26.2633 189.309 26.298C189.344 26.3327 189.361 26.3847 189.361 26.454C189.361 26.9047 189.361 27.5113 189.361 28.274C189.361 29.0367 189.361 29.9033 189.361 30.874C189.361 31.8447 189.361 32.8673 189.361 33.942C189.361 34.9993 189.361 36.048 189.361 37.088C189.361 38.128 189.361 39.0987 189.361 40ZM202.353 25.882C203.375 25.882 204.311 26.0987 205.161 26.532C206.01 26.948 206.686 27.5893 207.189 28.456C207.709 29.3053 207.969 30.3973 207.969 31.732V33.63C207.969 33.682 207.951 33.734 207.917 33.786C207.899 33.8207 207.873 33.8553 207.839 33.89C207.804 33.9073 207.752 33.916 207.683 33.916H200.949C200.654 33.916 200.359 33.916 200.065 33.916C199.77 33.916 199.484 33.916 199.207 33.916H198.427L198.089 32.226H205.629C205.629 32.1393 205.629 32.0527 205.629 31.966C205.629 31.8793 205.629 31.7927 205.629 31.706C205.629 31.03 205.551 30.4493 205.395 29.964C205.256 29.4613 205.031 29.054 204.719 28.742C204.441 28.482 204.103 28.2913 203.705 28.17C203.306 28.0313 202.855 27.962 202.353 27.962C201.226 27.962 200.359 28.2653 199.753 28.872C199.146 29.4613 198.843 30.432 198.843 31.784V34.514C198.843 35.0687 198.921 35.5713 199.077 36.022C199.233 36.4727 199.449 36.8453 199.727 37.14C200.073 37.4867 200.524 37.7467 201.079 37.92C201.651 38.076 202.309 38.154 203.055 38.154C203.713 38.154 204.277 38.1193 204.745 38.05C205.23 37.9807 205.681 37.8767 206.097 37.738C206.513 37.5993 206.937 37.426 207.371 37.218H207.761C207.761 37.4953 207.761 37.7813 207.761 38.076C207.761 38.3707 207.761 38.6653 207.761 38.96C207.761 38.9947 207.752 39.0293 207.735 39.064C207.717 39.0987 207.691 39.1333 207.657 39.168C207.483 39.3413 207.163 39.5147 206.695 39.688C206.244 39.8613 205.689 40 205.031 40.104C204.389 40.2253 203.696 40.286 202.951 40.286C201.963 40.286 201.061 40.1647 200.247 39.922C199.449 39.6793 198.765 39.3153 198.193 38.83C197.638 38.3447 197.213 37.7467 196.919 37.036C196.624 36.308 196.477 35.4673 196.477 34.514V31.81C196.477 30.8047 196.624 29.9293 196.919 29.184C197.231 28.4387 197.655 27.8233 198.193 27.338C198.73 26.8527 199.354 26.4887 200.065 26.246C200.775 26.0033 201.538 25.882 202.353 25.882Z" fill="#ECF0F1"/>
</svg>
